<svg xmlns="http://www.w3.org/2000/svg" width="32" height="32" viewBox="0 0 32 32">
  <g id="Group_15" data-name="Group 15" transform="translate(0 0.378)">
    <rect id="Rectangle_24" data-name="Rectangle 24" width="32" height="32" transform="translate(0 -0.378)" fill="#fff" opacity="0"/>
    <path id="calendar_month_FILL0_wght200_GRAD0_opsz48" d="M20.233,22.944a1.164,1.164,0,0,1-.822-.344,1.114,1.114,0,0,1-.363-.841,1.073,1.073,0,0,1,.363-.8,1.154,1.154,0,0,1,1.644,0,1.073,1.073,0,0,1,.363.8,1.114,1.114,0,0,1-.363.841A1.164,1.164,0,0,1,20.233,22.944Zm-6.117,0a1.164,1.164,0,0,1-.822-.344,1.114,1.114,0,0,1-.363-.841,1.073,1.073,0,0,1,.363-.8,1.154,1.154,0,0,1,1.644,0,1.073,1.073,0,0,1,.363.8,1.114,1.114,0,0,1-.363.841A1.164,1.164,0,0,1,14.117,22.944Zm12.233,0a1.164,1.164,0,0,1-.822-.344,1.114,1.114,0,0,1-.363-.841,1.073,1.073,0,0,1,.363-.8,1.154,1.154,0,0,1,1.644,0,1.073,1.073,0,0,1,.363.8,1.114,1.114,0,0,1-.363.841A1.164,1.164,0,0,1,26.35,22.944Zm-6.117,5.887a1.164,1.164,0,0,1-.822-.344,1.114,1.114,0,0,1-.363-.841,1.186,1.186,0,0,1,2.37,0,1.114,1.114,0,0,1-.363.841A1.164,1.164,0,0,1,20.233,28.831Zm-6.117,0a1.164,1.164,0,0,1-.822-.344,1.114,1.114,0,0,1-.363-.841,1.186,1.186,0,0,1,2.37,0,1.114,1.114,0,0,1-.363.841A1.164,1.164,0,0,1,14.117,28.831Zm12.233,0a1.164,1.164,0,0,1-.822-.344,1.114,1.114,0,0,1-.363-.841,1.186,1.186,0,0,1,2.37,0,1.114,1.114,0,0,1-.363.841A1.164,1.164,0,0,1,26.35,28.831ZM10.1,33.419a2.089,2.089,0,0,1-2.1-2.1V10.711a2.089,2.089,0,0,1,2.1-2.1h3.173V5.55h1.376V8.608H25.929V5.55h1.3V8.608h3.135a2.089,2.089,0,0,1,2.1,2.1V31.316a2.089,2.089,0,0,1-2.1,2.1Zm0-1.185H30.364a.987.987,0,0,0,.917-.917V17.363H9.185V31.316a.987.987,0,0,0,.917.917ZM9.185,16.178h22.1V10.711a.987.987,0,0,0-.917-.917H10.1a.987.987,0,0,0-.917.917Zm0,0v0Z" transform="translate(-4 -3.55)"/>
  </g>
</svg>
