<svg xmlns="http://www.w3.org/2000/svg" width="15" height="15" viewBox="0 0 15 15">
  <g id="Group_64" data-name="Group 64" transform="translate(15) rotate(90)">
    <rect id="Rectangle_32" data-name="Rectangle 32" width="15" height="15" transform="translate(0 0)" fill="none"/>
    <path id="keyboard_arrow_down_FILL0_wght200_GRAD0_opsz48" d="M4.746,0a.624.624,0,0,0-.438.184L.115,4.378a.336.336,0,0,0,0,.507A.352.352,0,0,0,.369,5a.352.352,0,0,0,.253-.115L4.746.76,8.871,4.885a.359.359,0,1,0,.507-.507L5.184.184a.653.653,0,0,0-.2-.138A.591.591,0,0,0,4.746,0Z" transform="translate(3 5)"/>
  </g>
</svg>
