<svg id="Group_14" data-name="Group 14" xmlns="http://www.w3.org/2000/svg" width="32" height="32" viewBox="0 0 32 32">
  <rect id="Rectangle_24" data-name="Rectangle 24" width="32" height="32" fill="#e4042c" opacity="0"/>
  <path id="insert_chart_FILL0_wght200_GRAD0_opsz48" d="M13.773,27.153h1.185v-9.1H13.773Zm5.887,0h1.147V13.314H19.66Zm5.849,0h1.185V22.795H25.509ZM10.1,32.467a2.089,2.089,0,0,1-2.1-2.1V10.1A2.089,2.089,0,0,1,10.1,8H30.364a2.089,2.089,0,0,1,2.1,2.1V30.364a2.089,2.089,0,0,1-2.1,2.1Zm0-1.185H30.364a.914.914,0,0,0,.917-.917V10.1a.914.914,0,0,0-.917-.917H10.1a.914.914,0,0,0-.917.917V30.364a.914.914,0,0,0,.917.917Zm-.917,0v0Z" transform="translate(-4 -4)"/>
</svg>
