<svg xmlns="http://www.w3.org/2000/svg" width="32" height="32" viewBox="0 0 32 32">
  <g id="Group_16" data-name="Group 16" transform="translate(0 -0.245)">
    <rect id="Rectangle_24" data-name="Rectangle 24" width="32" height="32" transform="translate(0 0.245)" fill="#fff" opacity="0"/>
    <path id="library_books_FILL0_wght200_GRAD0_opsz48" d="M15.442,17H26.7V15.885H15.442Zm0,3.824h6.1V19.71h-6.1Zm0-7.685H26.7V12.061H15.442Zm-2.778,13.71a1.971,1.971,0,0,1-1.984-1.984V7.984A1.971,1.971,0,0,1,12.664,6H29.549a1.971,1.971,0,0,1,1.984,1.984V24.869a1.971,1.971,0,0,1-1.984,1.984Zm0-1.082H29.549a.805.805,0,0,0,.6-.289.887.887,0,0,0,.271-.613V7.984a.931.931,0,0,0-.866-.866H12.664a.887.887,0,0,0-.613.271.805.805,0,0,0-.289.6V24.869a1,1,0,0,0,.9.9Zm-.9-18.652v0ZM8.984,30.533A1.971,1.971,0,0,1,7,28.549v-18H8.118v18a.931.931,0,0,0,.866.866h18v1.118Z" transform="translate(-3 -2)"/>
  </g>
</svg>
