<svg xmlns="http://www.w3.org/2000/svg" width="20.46" height="25.234" viewBox="0 0 20.46 25.234">
  <path id="notifications_FILL1_wght200_GRAD0_opsz48" d="M9,27.528V26.471h2.8V15.832a7.5,7.5,0,0,1,1.688-4.74,6.973,6.973,0,0,1,4.45-2.626V7.478a1.169,1.169,0,0,1,.358-.887,1.46,1.46,0,0,1,1.875,0,1.169,1.169,0,0,1,.358.887v.989a7.04,7.04,0,0,1,4.467,2.626,7.449,7.449,0,0,1,1.7,4.74V26.471H29.46v1.057Zm10.23,3.956a2.183,2.183,0,0,1-1.552-.631,2.094,2.094,0,0,1-.665-1.586h4.433a2.157,2.157,0,0,1-2.216,2.216Z" transform="translate(-9 -6.25)" fill="#5b5b5b"/>
</svg>
